<svg width="75" height="74" viewBox="0 0 75 74" fill="none" xmlns="http://www.w3.org/2000/svg">
<path opacity="0.2" d="M8.61108 31.8348L33.1666 5.28833" stroke="#FB5B5B" stroke-width="8.81899" stroke-linecap="round"/>
<path opacity="0.2" d="M5 50.7967L29.5556 24.2502" stroke="#FB5B5B" stroke-width="8.81899" stroke-linecap="round"/>
<path opacity="0.2" d="M29.5555 40.178L54.1111 13.6315" stroke="#FB5B5B" stroke-width="8.81899" stroke-linecap="round"/>
<path opacity="0.2" d="M19.4445 69L44 42.4535" stroke="#FB5B5B" stroke-width="8.81899" stroke-linecap="round"/>
<path opacity="0.2" d="M45.4445 56.8645L70 30.318" stroke="#FB5B5B" stroke-width="8.81899" stroke-linecap="round"/>
<path d="M23.9644 8.55083C23.9644 10.8784 22.172 12.7342 19.9985 12.7342C17.825 12.7342 16.0326 10.8784 16.0326 8.55083C16.0326 6.22325 17.825 4.36746 19.9985 4.36746C22.172 4.36746 23.9644 6.22325 23.9644 8.55083Z" stroke="#FB5656" stroke-width="0.734916"/>
<path d="M65.2992 47.7628C65.2992 50.0904 63.5069 51.9462 61.3333 51.9462C59.1598 51.9462 57.3675 50.0904 57.3675 47.7628C57.3675 45.4353 59.1598 43.5795 61.3333 43.5795C63.5069 43.5795 65.2992 45.4353 65.2992 47.7628Z" stroke="#FB5656" stroke-width="0.734916"/>
<path d="M14.7437 62.9323C14.7437 65.2598 12.9513 67.1156 10.7778 67.1156C8.60425 67.1156 6.81192 65.2598 6.81192 62.9323C6.81192 60.6047 8.60425 58.7489 10.7778 58.7489C12.9513 58.7489 14.7437 60.6047 14.7437 62.9323Z" stroke="#FB5656" stroke-width="0.734916"/>
<path d="M29.5 39.7L27.5 33.7C29.3333 32.7 33.2 30.7 34 30.7C35 30.7 35 30.2 36 30.7C37 31.2 44.5 31.2 46.5 35.2C47 38.2 47 40.2 47 42.2V45.2C47 47.2 47 49.7 46.5 50.7C46.1 51.5 42.3333 51.0333 40.5 50.7L36.5 47.2C36.1667 47.7 35.4 48.9 35 49.7C34.6 50.5 32.5 50.7 31.5 50.7C30.1667 50.0333 27.5 48.6 27.5 48.2C27.5 47.8 28.5 44.0333 29 42.2L29.5 39.7Z" fill="white"/>
<path d="M23 51.3667C23 53.75 24.95 55.7 27.3333 55.7H44.6667C47.05 55.7 49 53.75 49 51.3667V29.7C49 27.3167 47.05 25.3667 44.6667 25.3667H27.3333C24.95 25.3667 23 27.3167 23 29.7V51.3667ZM29.8683 34.4017C30.0688 34.2008 30.3069 34.0415 30.569 33.9327C30.8311 33.824 31.1121 33.7681 31.3958 33.7681C31.6796 33.7681 31.9606 33.824 32.2227 33.9327C32.4848 34.0415 32.7229 34.2008 32.9233 34.4017L36 37.4783L39.0767 34.4017C39.2772 34.2011 39.5154 34.042 39.7775 33.9334C40.0396 33.8248 40.3205 33.769 40.6042 33.769C40.8878 33.769 41.1687 33.8248 41.4308 33.9334C41.6929 34.042 41.9311 34.2011 42.1317 34.4017C42.3322 34.6023 42.4914 34.8404 42.5999 35.1025C42.7085 35.3646 42.7644 35.6455 42.7644 35.9292C42.7644 36.2129 42.7085 36.4938 42.5999 36.7559C42.4914 37.0179 42.3322 37.2561 42.1317 37.4567L39.055 40.5333L42.1317 43.61C42.3322 43.8106 42.4914 44.0487 42.5999 44.3108C42.7085 44.5729 42.7644 44.8538 42.7644 45.1375C42.7644 45.4212 42.7085 45.7021 42.5999 45.9642C42.4914 46.2263 42.3322 46.4644 42.1317 46.665C41.9311 46.8656 41.6929 47.0247 41.4308 47.1333C41.1687 47.2418 40.8878 47.2977 40.6042 47.2977C40.3205 47.2977 40.0396 47.2418 39.7775 47.1333C39.5154 47.0247 39.2772 46.8656 39.0767 46.665L36 43.5883L32.9233 46.665C32.7227 46.8656 32.4846 47.0247 32.2225 47.1333C31.9604 47.2418 31.6795 47.2977 31.3958 47.2977C31.1121 47.2977 30.8312 47.2418 30.5691 47.1333C30.307 47.0247 30.0689 46.8656 29.8683 46.665C29.6677 46.4644 29.5086 46.2263 29.4 45.9642C29.2915 45.7021 29.2356 45.4212 29.2356 45.1375C29.2356 44.8538 29.2915 44.5729 29.4 44.3108C29.5086 44.0487 29.6677 43.8106 29.8683 43.61L32.945 40.5333L29.8683 37.4567C29.6675 37.2562 29.5081 37.0181 29.3994 36.756C29.2907 36.4939 29.2347 36.2129 29.2347 35.9292C29.2347 35.6454 29.2907 35.3644 29.3994 35.1023C29.5081 34.8402 29.6675 34.6021 29.8683 34.4017ZM43.5833 18.8667L42.045 17.3283C41.655 16.9383 41.0917 16.7 40.5283 16.7H31.4716C30.9083 16.7 30.345 16.9383 29.955 17.3283L28.4166 18.8667H23C21.8083 18.8667 20.8333 19.8417 20.8333 21.0333C20.8333 22.225 21.8083 23.2 23 23.2H49C50.1917 23.2 51.1667 22.225 51.1667 21.0333C51.1667 19.8417 50.1917 18.8667 49 18.8667H43.5833Z" fill="url(#paint0_linear)"/>
<defs>
<linearGradient id="paint0_linear" x1="20.9999" y1="18.2" x2="57.9999" y2="66.7" gradientUnits="userSpaceOnUse">
<stop stop-color="#FF7777"/>
<stop offset="1" stop-color="#F52E2E"/>
</linearGradient>
</defs>
</svg>
