<svg width="21" height="24" viewBox="0 0 21 24" fill="none" xmlns="http://www.w3.org/2000/svg">
<path d="M10.5 24C9.82507 24 9.24656 23.7653 8.76446 23.2958C8.28237 22.8263 8.04132 22.2723 8.04132 21.6338H12.9587C12.9587 22.2723 12.7176 22.8263 12.2355 23.2958C11.7534 23.7653 11.1749 24 10.5 24ZM18.5124 16.7887L21 19.2113V20.3944H0V19.2113L2.4876 16.7887V10.1972C2.4876 8.35681 3.06612 6.73239 4.22314 5.32394C5.38017 3.91549 6.84573 3.00469 8.61983 2.59155V1.80282C8.61983 1.277 8.80303 0.84507 9.16942 0.507042C9.53581 0.169014 9.97934 0 10.5 0C11.0207 0 11.4545 0.169014 11.8017 0.507042C12.1488 0.84507 12.3223 1.277 12.3223 1.80282V2.59155C14.135 3.00469 15.6198 3.91549 16.7769 5.32394C17.9339 6.73239 18.5124 8.35681 18.5124 10.1972V16.7887ZM16.0248 18.0282V10.1972C16.0248 8.69484 15.4848 7.41784 14.405 6.3662C13.3251 5.31455 12.0138 4.78873 10.4711 4.78873C8.92837 4.78873 7.61708 5.31455 6.53719 6.3662C5.4573 7.41784 4.91736 8.69484 4.91736 10.1972V18.0282H16.0248Z" fill="#71DBA7"/>
</svg>
