<svg width="20" height="20" viewBox="0 0 20 20" fill="none" xmlns="http://www.w3.org/2000/svg">
<rect width="20" height="20" rx="2" fill="#30B27C"/>
<path d="M10.6667 3.35333V4.7C13.5933 5.06 15.6667 7.72 15.3067 10.6467C15 13.0733 13.0933 15 10.6667 15.2867V16.62C14.3333 16.2533 17 13 16.6333 9.33333C16.3333 6.16667 13.82 3.66667 10.6667 3.35333ZM9.33334 3.37333C8.03334 3.5 6.79334 4 5.78 4.84L6.73334 5.82667C7.48 5.22667 8.38 4.84 9.33334 4.70667V3.37333ZM4.84 5.78C4.00644 6.79156 3.49347 8.02872 3.36667 9.33333H4.7C4.82667 8.38667 5.2 7.48667 5.79334 6.73333L4.84 5.78ZM12.3333 7.66667L9.08 10.92L7.66667 9.50667L6.96 10.2133L9.08 12.3333L13.04 8.37333L12.3333 7.66667ZM3.37334 10.6667C3.50667 11.9733 4.02 13.2067 4.84667 14.22L5.79334 13.2667C5.20462 12.5131 4.8293 11.6151 4.70667 10.6667H3.37334ZM6.73334 14.2467L5.78 15.16C6.78986 16.0018 8.02618 16.526 9.33334 16.6667V15.3333C8.38494 15.2107 7.48694 14.8354 6.73334 14.2467Z" fill="white"/>
</svg>
